<svg xmlns="http://www.w3.org/2000/svg" viewBox="0 0 480 360" role="img" aria-label="chest-risk">
    <defs>
      <linearGradient id="nodeBg" x1="0" x2="1" y1="0" y2="1">
        <stop offset="0" stop-color="#f8f4ec"/>
        <stop offset="1" stop-color="#e5f2ee"/>
      </linearGradient>
      <filter id="shadow" x="-20%" y="-20%" width="140%" height="140%">
        <feDropShadow dx="0" dy="12" stdDeviation="14" flood-color="#1f2937" flood-opacity="0.12"/>
      </filter>
    </defs>
    <rect width="480" height="360" rx="30" fill="url(#nodeBg)"/>
    <circle cx="76" cy="72" r="58" fill="#fffdf8" opacity="0.72"/>
    <circle cx="412" cy="292" r="82" fill="#fff4e9" opacity="0.78"/>
    <g filter="url(#shadow)"><path d="M240 104v214" stroke="#335c7a" stroke-width="12" stroke-linecap="round"/><path d="M240 136c-74 10-119 45-132 103M240 174c-58 8-98 34-119 79M240 136c74 10 119 45 132 103M240 174c58 8 98 34 119 79" fill="none" stroke="#fffdf8" stroke-width="16" stroke-linecap="round"/><path d="M240 136c-74 10-119 45-132 103M240 174c-58 8-98 34-119 79M240 136c74 10 119 45 132 103M240 174c58 8 98 34 119 79" fill="none" stroke="#1f6f78" stroke-width="7" stroke-linecap="round"/></g>
  </svg>