<svg xmlns="http://www.w3.org/2000/svg" viewBox="0 0 900 620" role="img" aria-labelledby="title desc">
  <title id="title">Disaster resource panel schematic</title>
  <desc id="desc">Abstract resource-dashboard teaching schematic without numbers, thresholds, or hospital identifiers.</desc>
  <defs>
    <linearGradient id="bg" x1="0" x2="1" y1="0" y2="1">
      <stop offset="0" stop-color="#eef8f5"/>
      <stop offset="1" stop-color="#fff7e8"/>
    </linearGradient>
    <filter id="shadow" x="-20%" y="-20%" width="140%" height="140%">
      <feDropShadow dx="0" dy="10" stdDeviation="10" flood-color="#1d2b36" flood-opacity="0.14"/>
    </filter>
  </defs>
  <rect width="900" height="620" rx="26" fill="url(#bg)"/>
  <g filter="url(#shadow)">
    <rect x="70" y="72" width="760" height="108" rx="20" fill="#ffffff"/>
    <rect x="70" y="220" width="230" height="130" rx="20" fill="#ffffff"/>
    <rect x="335" y="220" width="230" height="130" rx="20" fill="#ffffff"/>
    <rect x="600" y="220" width="230" height="130" rx="20" fill="#ffffff"/>
    <rect x="70" y="390" width="230" height="130" rx="20" fill="#ffffff"/>
    <rect x="335" y="390" width="230" height="130" rx="20" fill="#ffffff"/>
    <rect x="600" y="390" width="230" height="130" rx="20" fill="#ffffff"/>
  </g>
  <g fill="#1f7a82">
    <circle cx="138" cy="126" r="34"/>
    <circle cx="162" cy="275" r="32"/>
    <circle cx="426" cy="275" r="32"/>
    <circle cx="692" cy="275" r="32"/>
    <circle cx="162" cy="445" r="32"/>
    <circle cx="426" cy="445" r="32"/>
    <circle cx="692" cy="445" r="32"/>
  </g>
  <g fill="#ffffff">
    <path d="M118 126 c12-18 28-18 40 0 c-12 18-28 18-40 0z"/>
    <circle cx="138" cy="126" r="7"/>
    <rect x="145" y="256" width="34" height="38" rx="6"/>
    <rect x="408" y="256" width="36" height="40" rx="6"/>
    <path d="M674 260 h36 v30 h-36z"/>
    <path d="M145 430 h34 v32 h-34z"/>
    <path d="M408 428 h36 v34 h-36z"/>
    <path d="M674 438 h36 v18 h-36z"/>
  </g>
  <g fill="#dfe7e2">
    <rect x="196" y="106" width="500" height="14" rx="7"/>
    <rect x="196" y="136" width="390" height="14" rx="7"/>
    <rect x="120" y="316" width="130" height="12" rx="6"/>
    <rect x="385" y="316" width="130" height="12" rx="6"/>
    <rect x="650" y="316" width="130" height="12" rx="6"/>
    <rect x="120" y="486" width="130" height="12" rx="6"/>
    <rect x="385" y="486" width="130" height="12" rx="6"/>
    <rect x="650" y="486" width="130" height="12" rx="6"/>
  </g>
  <path d="M110 558 H790" stroke="#c89b42" stroke-width="14" stroke-linecap="round" opacity="0.72"/>
</svg>
