<svg xmlns="http://www.w3.org/2000/svg" viewBox="0 0 720 430" role="img" aria-label="Generated teaching illustration for D stage neurologic observation">
    <defs>
      <linearGradient id="bg" x1="0" x2="1" y1="0" y2="1">
        <stop offset="0" stop-color="#fffdf8"/>
        <stop offset="0.55" stop-color="#e7f2ef"/>
        <stop offset="1" stop-color="#fff4e9"/>
      </linearGradient>
      <filter id="shadow" x="-20%" y="-20%" width="140%" height="140%">
        <feDropShadow dx="0" dy="14" stdDeviation="16" flood-color="#1f2937" flood-opacity="0.12"/>
      </filter>
    </defs>
    <rect width="720" height="430" rx="32" fill="url(#bg)"/>
    <path d="M0 334 C 130 285, 222 410, 360 340 S 562 264, 720 330 V430 H0z" fill="#ffffff" opacity="0.66"/>
    <path d="M60 70 C 160 20, 240 74, 330 46 S 520 16, 660 70" fill="none" stroke="#ffffff" stroke-width="26" opacity="0.62"/>
    <g opacity="0.92">
      <g>
    <circle cx="116" cy="302" r="17" fill="#fffdf8" stroke="#1f6f78" stroke-width="6"/>
    <path d="M88 357c5-31 16-47 28-47s23 16 28 47" fill="#fffdf8" stroke="#1f6f78" stroke-width="8" stroke-linecap="round"/>
    <path d="M82 340h68" stroke="#1f6f78" stroke-width="8" stroke-linecap="round"/>
  </g>
      <g>
    <circle cx="594" cy="298" r="17" fill="#fffdf8" stroke="#6f8f82" stroke-width="6"/>
    <path d="M566 353c5-31 16-47 28-47s23 16 28 47" fill="#fffdf8" stroke="#6f8f82" stroke-width="8" stroke-linecap="round"/>
    <path d="M560 336h68" stroke="#6f8f82" stroke-width="8" stroke-linecap="round"/>
  </g>
    </g>
    <g filter="url(#shadow)">
      <g>
      <path d="M276 113c-55-20-101 16-107 61-42 7-63 40-51 78 11 35 49 51 85 36 18 37 69 53 106 27 39 23 91 7 106-35 40 1 71-25 76-62 5-45-28-82-73-88-20-38-74-53-142-17z" fill="#fffdf8" stroke="#b45d4f" stroke-width="9"/>
      <path d="M252 135c-19 35-5 72 30 90M345 134c25 29 25 65-1 94M203 211c31-4 54 9 69 35M381 222c30-10 57 0 77 28" fill="none" stroke="#335c7a" stroke-width="7" stroke-linecap="round"/>
      <circle cx="128" cy="126" r="42" fill="#d9eeeb" stroke="#335c7a" stroke-width="7"/>
      <circle cx="116" cy="126" r="7" fill="#b45d4f"/><circle cx="140" cy="126" r="7" fill="#b45d4f"/>
    </g>
    </g>
    <circle cx="76" cy="72" r="38" fill="#b45d4f"/>
    <text x="76" y="86" text-anchor="middle" font-family="Arial, sans-serif" font-size="38" fill="#ffffff" font-weight="800">D</text>
  </svg>